<svg width="512" height="512" xmlns="http://www.w3.org/2000/svg">

 <g>
  <title>background</title>
  <rect fill="none" id="canvas_background" height="402" width="582" y="-1" x="-1"/>
 </g>
 <g>
  <title>Layer 1</title>
  <path id="svg_2" fill="#A7A7A7" d="m505,257c0,35.799988 0.100006,71.600006 0,107.5c-0.200012,52 -24.399994,90.5 -67.600006,117.700012c-25.299988,15.799988 -53.399994,22.799988 -83.199982,22.799988c-65.199982,0 -130.300003,0.299988 -195.5,-0.100006c-45.300003,-0.299988 -84.300003,-16.299988 -115.199993,-49.899994c-19.10001,-20.799988 -30.499999,-45.299988 -33.799999,-73.600006c-0.7,-6 -0.8,-11.899994 -0.8,-17.899994c0,-71.299988 -0.099999,-142.600006 0,-213.899994c0.29998,-52.100006 24.499982,-90.600006 67.699979,-117.800007c25.5,-15.9 53.700005,-22.799999 83.700005,-22.799999c65,0 129.999985,-0.3 194.999985,0.1c45.5,0.299999 84.600006,16.4 115.5,50.199999c18.900024,20.700001 30.200012,45.200001 33.400024,73.200001c1.299988,11 0.699982,22 0.799988,32.899994c0.100006,30.600006 0,61.100006 0,91.600006zm-459,0c0,36.700012 -0.099998,73.299988 0,110c0.099998,25.200012 9.299999,46.899994 26.5,64.899994c23.099998,24.100006 51.900002,35.800018 85,36c65.699997,0.399994 131.299988,0.100006 197,0.100006c21.200012,0 41.399994,-4.600006 59.799988,-15.200012c34.400024,-19.699982 53.800018,-48.699982 53.800018,-89.299988c0,-72.200012 0,-144.300003 0,-216.5c0,-25 -9.100006,-46.599998 -26.200012,-64.5c-22.899994,-24.200001 -51.799988,-36.099998 -84.800018,-36.299999c-66.399963,-0.5 -132.699982,-0.200001 -199.099976,-0.200001c-20.699997,0 -40.300003,4.900002 -58.300003,15.099998c-34.299995,19.800003 -53.799995,48.800003 -53.699997,89.400002c0,35.5 0,71 0,106.5z"/>
  <path id="svg_3" fill="#A7A7A7" d="m257.299988,363c-64.599991,0 -116.399994,-51.600006 -116.300003,-116c0.099991,-62.699997 52.599991,-114.100006 116.699997,-114c64.399994,0 116.399994,51.699997 116.299988,115.5c-0.099976,63.200012 -52.399963,114.5 -116.699982,114.5zm0,-37c43.899994,0 79.699982,-34.899994 79.699982,-77.800003c0,-43.099991 -35.5,-78.199997 -79.299988,-78.199997c-43.900009,0 -79.699997,34.899994 -79.699997,77.800003c0.000015,43.099991 35.500015,78.199997 79.300003,78.199997z"/>
  <path id="svg_4" fill="#A7A7A7" d="m363,123.599998c0,-14.199997 10.899994,-25.599998 24.5,-25.599998c13.600006,0 24.5,11.5 24.5,25.599998c0,13.900002 -10.899994,25.299995 -24.299988,25.400002c-13.600006,0.100006 -24.700012,-11.199997 -24.700012,-25.400002z"/>
 </g>
</svg>